<svg xmlns="http://www.w3.org/2000/svg" xmlns:xlink="http://www.w3.org/1999/xlink" width="1115" height="196" viewBox="0 0 1115 196"><defs><style>.a{fill:#fff;stroke:#707070;}.b{clip-path:url(#a);}.c{fill:#f7f6fb;}</style><clipPath id="a"><rect class="a" width="1115" height="196" transform="translate(805 964)"/></clipPath></defs><g class="b" transform="translate(-805 -964)"><path class="c" d="M-543.51,0h-46.17L-666.9-117.18V0h-46.17V-190.89h46.17l77.22,118.26V-190.89h46.17Zm150.12-34.83h-71.55L-476.82,0h-48.6l69.93-189.54h53.19L-332.37,0h-49.14Zm-11.88-35.1-23.76-70.2-24.03,70.2Zm227.88-120.96v36.72h-51.84V0h-46.44V-154.17h-51.3v-36.72Zm64.26,0V-80.73q0,18.9,8.505,28.89t24.705,9.99q16.2,0,24.705-9.99t8.5-28.89V-190.89H-.54V-80.73q0,27-10.53,45.5A68.452,68.452,0,0,1-39.825-7.425Q-58.05,1.89-81,1.89t-40.5-9.18q-17.55-9.18-27.54-27.81t-9.99-45.63V-190.89ZM128.25,0,86.94-72.09H76.41V0H30.24V-190.89h78.84q22.68,0,38.34,7.83T170.91-161.6q7.83,13.635,7.83,31.185,0,20.79-11.475,35.37T133.92-75.06L179.28,0ZM76.41-103.68h28.62q13.77,0,20.25-6.075t6.48-17.955q0-11.34-6.615-17.82t-20.115-6.48H76.41ZM320.22-34.83H248.67L236.79,0h-48.6l69.93-189.54h53.19L381.24,0H332.1Zm-11.88-35.1-23.76-70.2-24.03,70.2ZM445.23-35.37h61.56V0H399.06V-190.89h46.17ZM665.28-53.73a52.63,52.63,0,0,1-7.7,27.81q-7.7,12.69-22.68,20.25T598.59,1.89q-32.13,0-52.92-15.66T522.99-57.51h49.14q1.08,10.8,7.7,17.01T596.7-34.29q8.91,0,14.04-4.86t5.13-12.96a16.734,16.734,0,0,0-4.725-12.15A37.047,37.047,0,0,0,599.4-72.225q-7.02-3.1-19.44-7.425a238.674,238.674,0,0,1-29.565-12.015,54.451,54.451,0,0,1-19.71-17.28q-8.235-11.475-8.235-29.835,0-17.01,8.64-29.43t23.895-19.035q15.255-6.615,34.965-6.615,31.86,0,50.625,15.12t21.2,41.58H611.82q-1.35-9.45-6.885-14.985T589.95-157.68q-8.1,0-13.1,4.32t-4.995,12.69a16.115,16.115,0,0,0,4.455,11.475A33.951,33.951,0,0,0,587.52-121.5q6.75,2.97,19.44,7.56a213.677,213.677,0,0,1,29.97,12.285A57.333,57.333,0,0,1,656.91-83.97Q665.28-72.36,665.28-53.73Z" transform="translate(1518 1158)"/></g></svg>